<?xml version="1.0" encoding="UTF-8"?>
<svg width="150px" height="160px" viewBox="0 0 150 160" version="1.1" xmlns="http://www.w3.org/2000/svg" xmlns:xlink="http://www.w3.org/1999/xlink">
    <title>Group</title>
    <defs>
        <polygon id="path-1" points="61.3913544 75.5362517 61.3913544 45.4054009 83.6669897 45.4641443 83.6669897 75.5362517"></polygon>
        <filter x="-31.4%" y="-16.6%" width="162.8%" height="146.5%" filterUnits="objectBoundingBox" id="filter-2">
            <feOffset dx="0" dy="2" in="SourceAlpha" result="shadowOffsetOuter1"></feOffset>
            <feGaussianBlur stdDeviation="2" in="shadowOffsetOuter1" result="shadowBlurOuter1"></feGaussianBlur>
            <feColorMatrix values="0 0 0 0 0   0 0 0 0 0   0 0 0 0 0  0 0 0 0.18711757 0" type="matrix" in="shadowBlurOuter1"></feColorMatrix>
        </filter>
    </defs>
    <g id="Talis-Elevate-App---Adding-resources" stroke="none" stroke-width="1" fill="none" fill-rule="evenodd">
        <g id="11" transform="translate(-496.000000, -137.000000)">
            <g id="Group" transform="translate(496.900767, 137.895494)">
                <ellipse id="Combined-Shape" fill="#E2EBF1" transform="translate(83.441244, 65.553741) rotate(170.000000) translate(-83.441244, -65.553741) " cx="83.4412438" cy="65.5537412" rx="56.5734215" ry="56.5895928"></ellipse>
                <g id="Group-16" transform="translate(81.099233, 82.104506)">
                    <path d="M3.95887358,58.9576401 C3.99924268,60.0972826 4.93148716,61 6.06768947,61 L31.9325452,61 C33.0687475,61 34.000992,60.0972826 34.0413611,58.9576401 L36.2325581,16.939712 L1.76744186,16.939712 L3.95887358,58.9576401 Z" id="Fill-99" fill="#606972"></path>
                    <polygon id="Fill-100" fill="#505962" points="0 16.939712 38 16.939712 38 12.5336832 0 12.5336832"></polygon>
                    <polygon id="Fill-101" fill="#000000" points="1.76744186 12.5336832 4.44046809 0.19680262 33.5595319 0.19680262 36.2325581 12.5336832"></polygon>
                    <polygon id="Fill-101" fill="#858E96" points="1.53613937 12.4950458 4.24343516 0 33.7358203 0 36.4431161 12.4950458"></polygon>
                    <path d="M9.73949682,9.89006597 C8.75319365,9.89006597 7.95348837,9.21684096 7.95348837,8.38607436 L7.95348837,6.10661896 C7.95348837,5.27605643 8.75319365,4.60283142 9.73949682,4.60283142 L29.1442241,4.60283142 C30.1305273,4.60283142 30.9302326,5.27605643 30.9302326,6.10661896 L30.9302326,8.38607436 C30.9302326,9.21684096 30.1305273,9.89006597 29.1442241,9.89006597 L9.73949682,9.89006597 Z" id="Fill-102" fill="#505962"></path>
                </g>
                <path d="M7.09923274,126.124379 L8.29429634,130.567892 C22.4012868,131.80036 31.0449515,130.909824 34.2252903,127.896283 C37.4056291,124.882743 41.0302766,113.618817 45.0992327,94.1045056 L28.785951,94.1045056 C26.2079561,110.084101 24.7666893,118.409301 24.4621503,119.080107 C24.1576114,119.750912 18.3699722,122.099003 7.09923274,126.124379 Z" id="Pant" fill="#9BA3AA" opacity="0.8"></path>
                <polygon id="Leg" fill="#997659" points="64.0992327 148.184487 66.5488379 153.104506 70.0992327 153.104506 67.7573385 147.104506"></polygon>
                <g id="Right-Shoe" transform="translate(65.099233, 152.271250)" fill="#191847">
                    <path d="M0,5.83387547 L0.262244498,0 L5.76937895,0 C8.38070562,1.94462516 11.7898841,3.51884552 15.9969144,4.72266109 L15.9969144,5.83387547 L6.03162345,5.83387547 L2.62244498,5.27826828 L2.62244498,5.83387547 L0,5.83387547 Z" id="Shoe"></path>
                </g>
                <path d="M63.2386104,148.104506 L69.0992327,146.32512 C66.5315344,138.620886 63.3844555,130.142658 59.657996,120.890438 C55.9315366,111.638217 51.9294577,102.709573 47.6517595,94.1045056 L31.0992327,94.1045056 C35.8551133,104.989521 40.8969845,114.879954 46.2248463,123.775806 C51.5527081,132.671658 57.2239628,140.781224 63.2386104,148.104506 Z" id="Pant" fill="#858E96"></path>
                <g id="Left-Shoe" transform="translate(3.607943, 132.803634) rotate(80.000000) translate(-3.607943, -132.803634) translate(-3.177856, 130.336552)" fill="#191847">
                    <path d="M0,4.9341637 L0.222485204,0 L4.89467449,0 C7.11009389,1.64472123 10.0024015,2.97616223 13.5715975,3.99432299 L13.5715975,4.9341637 L5.1171597,4.9341637 L2.22485204,4.46424334 L2.22485204,4.9341637 L0,4.9341637 Z" id="Shoe"></path>
                </g>
                <path d="M46.0562258,70.3294096 C48.9503828,70.7563391 52.900451,70.7529994 57.4270799,68.7803052 L58.4682035,72.6561577 C55.1843318,75.0366326 50.8288415,76.7299793 47.3580375,76.0793427 C44.6228526,75.5666052 43.7479042,72.0027093 46.0562258,70.3294096 Z" id="Sleeve" fill="#EF4D4D" opacity="0.6" transform="translate(51.598769, 72.499945) rotate(-9.000000) translate(-51.598769, -72.499945) "></path>
                <g id="Head/Front" transform="translate(39.152754, 51.559676) rotate(-8.000000) translate(-39.152754, -51.559676) translate(31.057930, 37.000178)">
                    <g id="Head" transform="translate(4.260767, 7.862129)" fill="#B28B67">
                        <path d="M10.8335095,2.65970958 C12.4793574,5.80488782 12.2837878,13.7828932 10.1566761,14.3450243 C9.30831265,14.569221 7.5009623,14.0199612 5.66158111,12.8831993 L6.8165037,21.2568672 L-9.09494702e-13,21.2568672 L2.34664189,10.0431579 C1.03790837,8.46818772 0.152132175,6.5380429 0.300146658,4.37526134 C0.726619476,-1.856342 9.18766162,-0.48546866 10.8335095,2.65970958 Z"></path>
                    </g>
                    <path d="M12.4018009,7.09629247 C11.4703706,6.80510251 10.1182612,6.70635067 9.54946893,6.77315545 C9.87302388,5.97837566 10.0014152,5.09289534 9.8967453,4.23072393 C9.79501063,3.39296467 9.4298834,2.67963696 9.09219561,1.93215571 C8.93653874,1.58761577 8.76013922,1.24495369 8.49713803,0.981419835 C8.22922297,0.712933133 7.89007841,0.535710314 7.5344528,0.451159771 C7.17052143,0.364614005 6.78997854,0.371820284 6.42548185,0.450361682 C6.26423708,0.485102049 6.11956033,0.560685821 5.96142478,0.602702887 C5.79948423,0.645752774 5.72092741,0.541836824 5.60338571,0.437404464 C5.32012021,0.185771534 4.90485404,0.0615512482 4.54648883,0.0170929675 C4.14442054,-0.0327641541 3.72721925,0.0294164085 3.34376283,0.164927314 C2.97052553,0.296846816 2.61196463,0.511063432 2.34211445,0.823139906 C2.22196361,0.962054428 2.11290161,1.12017004 2.04202001,1.29474039 C2.01294986,1.36638066 2.00814469,1.40882024 1.93841546,1.43506331 C1.87392625,1.45935809 1.79850039,1.46006229 1.73194561,1.48318341 C1.08840153,1.70664847 0.538177655,2.21643989 0.238583296,2.87099066 C0.0637927415,3.25285302 -0.0190039287,3.92517767 0.00367383576,4.67874314 C0.0263516002,5.43230861 0.690029531,7.39857596 1.31076539,8.11577675 C1.86483775,8.75593844 2.67925867,9.178386 3.46523998,9.36330803 C2.94354268,9.97466808 2.59626631,10.7386275 2.33946183,11.5155911 C2.06052315,12.3595708 1.88788514,13.2365069 1.82413518,14.130015 C1.76358142,14.9789475 1.75797177,15.8767044 1.9520917,16.7075155 C2.13368775,17.4844557 2.52203632,18.1218241 3.17034207,18.5261738 C3.46730555,18.711401 3.78681633,18.8505502 4.10817526,18.9777281 C4.42488122,19.1030516 4.74254386,19.2249011 5.07429586,19.2952269 C5.70216336,19.4282731 6.42561231,19.4054337 6.90925967,18.8930602 C7.08357188,18.7083494 7.27527835,18.4762462 7.40245212,18.2505982 C7.44817728,18.1694512 7.47574718,18.1163783 7.42019426,18.0370623 C7.35363948,17.9420661 7.24599077,17.8692757 7.16049799,17.7949595 C6.67295866,17.3712443 6.37116828,16.8055867 6.29509014,16.1333606 C6.21790312,15.4512992 6.39660738,14.570936 7.04341288,14.2732721 C7.84183109,13.9058223 8.72111085,14.3275891 9.43075311,14.7207421 C9.73234781,13.6294251 10.3516052,12.6468126 11.3224874,12.1462227 C12.3966046,11.592419 13.62914,11.5276094 14.7329579,11.052441 C15.0205937,10.9286198 15.3135565,10.7880621 15.5253316,10.535772 C15.6138249,10.4303302 15.7176469,10.2935518 15.752979,10.1540974 C15.7993999,9.97091236 15.684163,9.81732707 15.5951478,9.674516 C15.1231546,8.91729336 13.3332311,7.38748243 12.4018009,7.09629247 Z" id="hair" fill="#191847"></path>
                </g>
                <path d="M8.1811861,127.104506 C8.1811861,127.104506 6.16682702,127.670728 5.09923274,127.97 L5.69763986,130.104506 C6.8706335,129.956625 9.09923274,129.667876 9.09923274,129.667876 C9.09923274,129.667876 8.1811861,127.104506 8.1811861,127.104506 Z" id="Leg" fill="#B28B67"></path>
                <g id="Path" fill-rule="nonzero" transform="translate(72.529172, 60.470826) rotate(-1.000000) translate(-72.529172, -60.470826) ">
                    <use fill="black" fill-opacity="1" filter="url(#filter-2)" xlink:href="#path-1"></use>
                    <use fill="#FFFFFF" xlink:href="#path-1"></use>
                </g>
                <path d="M64.6194305,51.0330483 L80.4399388,51.0330483 C80.9922235,51.0330483 81.4399388,51.4807636 81.4399388,52.0330483 L81.4399388,52.2606119 C81.4399388,52.8128966 80.9922235,53.2606119 80.4399388,53.2606119 L64.6194305,53.2606119 C64.0671457,53.2606119 63.6194305,52.8128966 63.6194305,52.2606119 L63.6194305,52.0330483 C63.6194305,51.4807636 64.0671457,51.0330483 64.6194305,51.0330483 Z" id="Rectangle" fill="#C5CFD6" fill-rule="nonzero" transform="translate(72.529685, 52.146830) rotate(-1.000000) translate(-72.529685, -52.146830) "></path>
                <path d="M64.7332123,55.4881754 L80.326157,55.4881754 C80.9412817,55.4881754 81.4399388,55.9868325 81.4399388,56.6019572 C81.4399388,57.2170819 80.9412817,57.7157389 80.326157,57.7157389 L64.7332123,57.7157389 C64.1180876,57.7157389 63.6194305,57.2170819 63.6194305,56.6019572 C63.6194305,55.9868325 64.1180876,55.4881754 64.7332123,55.4881754 Z" id="Rectangle" fill="#C5CFD6" fill-rule="nonzero" transform="translate(72.529685, 56.601957) rotate(-1.000000) translate(-72.529685, -56.601957) "></path>
                <path d="M64.7332123,59.9433025 L72.5296846,59.9433025 C73.1448093,59.9433025 73.6434664,60.4419596 73.6434664,61.0570842 C73.6434664,61.6722089 73.1448093,62.170866 72.5296846,62.170866 L64.7332123,62.170866 C64.1180876,62.170866 63.6194305,61.6722089 63.6194305,61.0570842 C63.6194305,60.4419596 64.1180876,59.9433025 64.7332123,59.9433025 Z" id="Rectangle" fill="#C5CFD6" fill-rule="nonzero" transform="translate(68.631448, 61.057084) rotate(-1.000000) translate(-68.631448, -61.057084) "></path>
                <path d="M68.5408729,74.0672503 C68.9741935,73.9780052 69.6527714,73.6146791 70.3451521,73.2310539 L70.7227921,73.021316 C71.6633583,72.4995651 72.5513384,72.0258694 72.7998362,72.2437397 C73.4860912,72.8454132 72.8741841,74.6928995 72.1532122,75.611925 C70.8057165,77.3295826 69.6900482,77.9169696 66.9325008,78.6861565 C65.4907127,79.0883271 63.9318847,79.8944435 62.2560169,81.1045056 L62.0349933,77.2079015 L65.9162957,75.0748476 C66.4608974,73.001728 67.1119023,71.9586714 67.8693105,71.9456779 C68.4511575,71.6748396 67.437875,74.2944199 68.5408729,74.0672503 Z M62.3697,65.1877236 C61.6570272,66.453165 60.9642907,67.8162841 61.3273699,68.2061395 C61.690449,68.5959949 62.5958188,68.0513847 63.0289669,68.6991326 C63.3177322,69.1309646 61.7709794,69.8131366 58.3887085,70.7456487 C57.6369101,71.1932816 57.288188,71.5127046 57.3425422,71.7039178 C57.3425422,71.7039178 56.0992328,69.0706428 56.0992327,69.0717057 C56.3504697,69.1202983 56.8311524,68.8569229 57.5412808,68.2815795 C59.0106631,66.5359693 60.4584141,65.1802586 61.8845339,64.2144473 C62.3203102,64.0324436 63.0823728,63.9222822 62.3697,65.1877236 Z" id="Skin" fill="#997659"></path>
                <path d="M43.977645,61.1045056 C44.2485311,64.4654205 45.3146761,68.0760765 46.4676802,71.7309972 L46.7699684,72.6853237 L46.7699684,72.6853237 L47.0734026,73.6408479 C47.1239152,73.8001567 47.1743591,73.9594816 47.2246761,74.1188058 L47.5245892,75.0746064 C47.6037248,75.3288124 47.6822403,75.5829303 47.7598989,75.8368916 C50.8962174,76.5937764 56.1579999,75.7027737 63.5442464,73.1645673 C65.3760867,76.8243887 66.2229005,79.4335606 66.0846879,80.9920831 C59.7484233,84.1884284 54.3178163,85.6132828 49.843875,85.7070107 C49.9878725,88.2699094 49.6648232,90.7093913 48.579326,92.9384051 C46.3479693,97.5203832 33.2821362,93.2769606 28.8890027,94.1121698 C26.1378933,85.4839085 31.4572465,81.977418 31.4615265,76.4565535 C31.4662136,70.4106186 36.4931576,61.1045056 37.2327718,61.1045056 L37.2327718,61.1045056 Z" id="Clothes" fill="#EF4D4D"></path>
            </g>
        </g>
    </g>
</svg>