<svg xmlns="http://www.w3.org/2000/svg" viewBox="0 0 242 104"><g fill="#FFF" fill-rule="evenodd"><path d="M103.581 78.698c0 3.857-1.406 8.987-13.558 8.987-12.775 0-14.252-5.362-14.252-9.396 0-9.15 17.96-9.258 18.142-9.258 3.583 0 6.882.175 9.668.512v9.155zM88.634 27.432c-7.643 0-17.209 1.682-24.04 4.269l-1.556.59v15.864l3.194-1.098c6.525-2.249 14.762-3.712 20.6-3.712 11.93 0 15.54 4.072 16.5 11.228a96.164 96.164 0 00-9.976-.5c-21.94 0-35.036 9.105-35.036 24.356 0 5.936 2.285 25.305 31.703 25.305 12.18 0 21.015-3.429 26.27-10.196 4.24-5.465 4.872-11.55 4.872-14.688V58.849c0-19.968-11.855-31.417-32.531-31.417zM216.73 55.484c-6.526-1.965-10.49-3.329-10.49-5.756 0-2.103 0-6.48 11.335-6.48 5.004 0 10.26 1.293 16.08 3.952l3.41 1.56V32.557l-1.333-.664c-6.324-3.158-13.128-4.829-19.675-4.829-9.095 0-16.16 2.455-21.004 7.296-4.037 4.033-6.258 9.642-6.258 15.79 0 14.996 12.28 18.759 22.149 21.782 8.126 2.49 13.112 4.268 13.112 9.181 0 3.826-4.295 6.205-11.198 6.205-6.504 0-12.475-1.58-18.25-4.835l-3.589-2.027v17.072l1.258.686c6.287 3.42 13.398 5.152 21.14 5.152 20.833 0 28.226-12.286 28.226-22.808 0-17.585-14.399-21.915-24.914-25.074M131.508 101.092h6.715c6.18 0 11.188-5.15 11.188-11.51V.899h-17.903v100.194M34.97 31.313h-4.78V.136H12.405v31.177H.025v16.09h12.38v33.209c0 7.288 2.149 13.02 6.386 17.037 4.219 4.002 8.64 6.03 15.995 6.03 5.06 0 13.289-1.589 17.023-3.293l.797-.365-3.77-16.744-2.054 1.2c-1.103.646-2.502 1.188-4.16 1.615-1.664.427-3.272.645-4.779.645-2.908 0-4.913-.674-5.96-2.003-1.122-1.426-1.693-3.893-1.693-7.331v-30h4.78v.01h6.715c6.18 0 11.188-5.149 11.188-11.509V31.3H34.971v.014M161.52 27.278l.019 73.814h6.714c6.182 0 11.19-5.15 11.19-11.51l-.017-62.304H161.52M161.097 18.797h18.751V.519h-18.751z"/></g></svg>
