<?xml version="1.0" encoding="UTF-8" standalone="no"?>
<svg
  xmlns:dc="http://purl.org/dc/elements/1.1/"
  xmlns:cc="http://creativecommons.org/ns#"
  xmlns:rdf="http://www.w3.org/1999/02/22-rdf-syntax-ns#"
  xmlns:svg="http://www.w3.org/2000/svg"
  xmlns="http://www.w3.org/2000/svg"
  viewBox="0 0 256 256"
  height="256"
  width="256"
  xml:space="preserve"
  id="svg2"
  version="1.1"><metadata
     id="metadata8"><rdf:RDF><cc:Work
         rdf:about=""><dc:format>image/svg+xml</dc:format><dc:type
  rdf:resource="http://purl.org/dc/dcmitype/StillImage" /></cc:Work></rdf:RDF></metadata><defs
  id="defs6" /><g
  transform="matrix(1.3333333,0,0,-1.3333333,0,256)"
  id="g10"><g
       transform="scale(0.1)"
       id="g12"><path
         id="path14"
         style="fill:#60c8a5;fill-opacity:1;fill-rule:nonzero;stroke:none"
         d="m 1151.4,349.801 c -89.8,-5.403 -168.502,18.097 -236.701,72 -67.5,59.5 -77.898,77 -109.699,131.898 -5.5,9.903 -11.898,20.903 -19.398,33.403 109.097,-76.301 227.998,-71.5 273.898,-59.801 79.4,16.801 154.1,43.301 221.8,83.5 L 1454.6,445 c -88.2,-49.301 -199.9,-89.102 -303.2,-95.199 z M 552.801,1085.8 v 262.1 h 193 V 1600 c 143.801,0 260.899,-112 265.899,-252.1 h 191 V 1085.8 H 1012 V 610.801 c -147,0 -266.199,88.301 -266.199,232.898 V 1085.8 Z M 960.102,1920 C 429.898,1920 0,1490.1 0,959.898 0,429.699 429.898,0 960.102,0 1490.4,0 1920,429.699 1920,959.898 1920,1490.1 1490.4,1920 960.102,1920" /><path
  id="path16"
  style="fill:#1e1e34;fill-opacity:1;fill-rule:nonzero;stroke:none"
  d="m 1454.6,445 c -88.2,-49.301 -199.9,-89.102 -303.2,-95.199 -89.8,-5.403 -168.502,18.097 -236.701,72 -67.5,59.5 -77.898,77 -109.699,131.898 -5.5,9.903 -11.898,20.903 -19.398,33.403 109.097,-76.301 227.998,-71.5 273.898,-59.801 79.4,16.801 154.1,43.301 221.8,83.5 L 1454.6,445" /><path
  id="path18"
  style="fill:#1e1e34;fill-opacity:1;fill-rule:nonzero;stroke:none"
  d="M 1202.7,1347.9 V 1085.8 H 1012 V 610.801 c -147,0 -266.199,88.301 -266.199,232.898 V 1085.8 h -193 v 262.1 h 193 V 1600 c 143.801,0 260.899,-112 265.899,-252.1 h 191" /></g></g></svg>
